<svg id="Capa_1" enable-background="new 0 0 512 512" height="512" viewBox="0 0 512 512" width="512" xmlns="http://www.w3.org/2000/svg"><g id="Light_bulb"><path d="m432 176c0-97.201-78.799-176-176-176s-176 78.799-176 176c0 61.756 31.873 115.99 80 147.4v28.6h192v-28.6c48.127-31.41 80-85.644 80-147.4z" fill="#fffa50"/><path d="m256 512c-53.019 0-96-42.981-96-96v-64h192v64c0 53.019-42.981 96-96 96z" fill="#ffce33"/><path d="m320 160c-35.346 0-64 28.654-64 64 0-35.346-28.654-64-64-64h-32v32c0 35.346 28.654 64 64 64h16v96h32v-96h16c35.346 0 64-28.654 64-64v-32z" fill="#ffce33"/><path d="m240 352h32v64h-32z" fill="#ffa65c"/></g></svg>